name GIL11_xslow1.mot
datacolumns 153
datarows 4
range 0.63333333 0.65833336
endheader

                time	           pelvis_tx	           pelvis_ty	           pelvis_tz	         pelvis_tilt	         pelvis_list	     pelvis_rotation	       hip_flexion_r	     hip_adduction_r	      hip_rotation_r	        knee_angle_r	       ankle_angle_r	    subtalar_angle_r	         mtp_angle_r	       hip_flexion_l	     hip_adduction_l	      hip_rotation_l	        knee_angle_l	       ankle_angle_l	    subtalar_angle_l	         mtp_angle_l	    lumbar_extension	      lumbar_bending	     lumbar_rotation	     ground_force_vx	     ground_force_vy	     ground_force_vz	     ground_force_px	     ground_force_py	     ground_force_pz	     ground_force_vx	     ground_force_vy	     ground_force_vz	     ground_force_px	     ground_force_py	     ground_force_pz	     ground_torque_x	     ground_torque_y	     ground_torque_z	     ground_torque_x	     ground_torque_y	     ground_torque_z	    ground_marker_px	    ground_marker_py	    ground_marker_pz	    ground_marker_px	    ground_marker_py	    ground_marker_pz	    ground_marker_px	    ground_marker_py	    ground_marker_pz	    ground_marker_px	    ground_marker_py	    ground_marker_pz	    ground_marker_px	    ground_marker_py	    ground_marker_pz	    ground_marker_px	    ground_marker_py	    ground_marker_pz	    ground_marker_px	    ground_marker_py	    ground_marker_pz	    ground_marker_px	    ground_marker_py	    ground_marker_pz	    ground_marker_px	    ground_marker_py	    ground_marker_pz	    ground_marker_px	    ground_marker_py	    ground_marker_pz	    ground_marker_px	    ground_marker_py	    ground_marker_pz	    ground_marker_px	    ground_marker_py	    ground_marker_pz	    ground_marker_px	    ground_marker_py	    ground_marker_pz	    ground_marker_px	    ground_marker_py	    ground_marker_pz	    ground_marker_px	    ground_marker_py	    ground_marker_pz	    ground_marker_px	    ground_marker_py	    ground_marker_pz	    ground_marker_px	    ground_marker_py	    ground_marker_pz	    ground_marker_px	    ground_marker_py	    ground_marker_pz	    ground_marker_px	    ground_marker_py	    ground_marker_pz	    ground_marker_px	    ground_marker_py	    ground_marker_pz	    ground_marker_px	    ground_marker_py	    ground_marker_pz	    ground_marker_px	    ground_marker_py	    ground_marker_pz	    ground_marker_px	    ground_marker_py	    ground_marker_pz	    ground_marker_px	    ground_marker_py	    ground_marker_pz	    ground_marker_px	    ground_marker_py	    ground_marker_pz	    ground_marker_px	    ground_marker_py	    ground_marker_pz	    ground_marker_px	    ground_marker_py	    ground_marker_pz	    ground_marker_px	    ground_marker_py	    ground_marker_pz	    ground_marker_px	    ground_marker_py	    ground_marker_pz	    ground_marker_px	    ground_marker_py	    ground_marker_pz	    ground_marker_px	    ground_marker_py	    ground_marker_pz	    ground_marker_px	    ground_marker_py	    ground_marker_pz	    ground_marker_px	    ground_marker_py	    ground_marker_pz	    ground_marker_px	    ground_marker_py	    ground_marker_pz	    ground_marker_px	    ground_marker_py	    ground_marker_pz	    ground_marker_px	    ground_marker_py	    ground_marker_pz	    ground_marker_px	    ground_marker_py	    ground_marker_pz	
          0.63333333	          0.38119203	          0.87670624	         -0.32005727	         -3.34178066	          0.47765020	          2.06869698	         30.47850037	         -4.02901936	          5.02082300	        -25.98216629	          0.82921684	          0.00000000	          0.00000000	         -2.31919670	          5.10363960	         10.85934639	         -4.66849852	          9.32530117	          0.00000000	          0.00000000	         -6.20416927	         -2.93417382	         -2.97992301	          0.00000000	          0.00000000	          0.00000000	          0.60528101	          0.00000000	         -0.23164548	          6.04379705	        601.30603400	         22.15613113	          0.28848724	          0.00000000	         -0.35317590	          0.00000000	          0.00000000	          0.00000000	          0.00000000	         -2.00435730	          0.00000000	          0.30917400	          0.82250071	         -0.31783798	          0.29710048	          0.79991227	         -0.24258983	          0.28715068	          0.80235273	         -0.39437208	          0.47332641	          0.45718423	         -0.22725339	          0.25117928	          0.42820233	         -0.36622861	          0.47949135	          0.08533711	         -0.22432257	          0.18500261	          0.06883474	         -0.33091938	          0.38119203	          0.87670624	         -0.32005727	          0.38504973	          0.87462586	         -0.20183021	          0.37733436	          0.87878668	         -0.43828437	          0.18646812	          0.93170327	         -0.27581999	          0.18145169	          0.92964697	         -0.33135492	          0.47787076	          0.46209890	         -0.16964094	          0.25969693	          0.42308521	         -0.42337111	          0.46993992	          0.45512041	         -0.28607324	          0.26653162	          0.44424319	         -0.30114082	          0.46622723	          0.08541463	         -0.18658589	          0.17195067	          0.06752541	         -0.36870736	          0.48897445	          0.09333525	         -0.25808787	          0.19606780	          0.07698116	         -0.30650899	          0.26148382	          1.37693048	         -0.31433061	          0.38386706	          1.31029582	         -0.26212922	          0.38499489	          1.30594134	         -0.36783272	          0.38024646	          1.30534458	         -0.31446022	          0.41774738	          1.23395979	         -0.31486347	          0.55009109	          0.64923668	         -0.25436497	          0.31300628	          0.54797220	         -0.51572949	          0.47337490	          0.66651958	         -0.19222961	          0.25526729	          0.60508162	         -0.46498564	          0.50265574	          0.58239299	         -0.19312006	          0.25689983	          0.51870626	         -0.44441614	          0.45835671	          0.16649280	         -0.11677513	          0.29898876	          0.17774275	         -0.33412671	          0.45962024	          0.17315915	         -0.15970466	          0.25750083	          0.18346904	         -0.34331030	          0.57532078	          0.06397038	         -0.19656412	          0.28946111	          0.04268450	         -0.36398470	
          0.64166671	          0.38554904	          0.87596262	         -0.31978777	         -3.42759323	          0.50272101	          2.10134244	         30.41167068	         -3.89375257	          5.23169136	        -23.71007538	          0.56622678	          0.00000000	          0.00000000	         -2.52784634	          5.13202286	         10.89196301	         -4.73771763	          9.59824371	          0.00000000	          0.00000000	         -6.13356161	         -2.85102415	         -2.87955284	          0.00000000	          0.00000000	          0.00000000	          0.60598627	          0.00000000	         -0.23110918	          7.03394268	        603.07474888	         22.75557594	          0.29054120	          0.00000000	         -0.35351117	          0.00000000	          0.00000000	          0.00000000	          0.00000000	         -2.03631824	          0.00000000	          0.31540650	          0.82390499	         -0.31788817	          0.30137646	          0.79924983	         -0.24232784	          0.29136461	          0.80179220	         -0.39410433	          0.47668278	          0.45603293	         -0.22816540	          0.25350627	          0.42793906	         -0.36593410	          0.49676061	          0.08410799	         -0.22362724	          0.18507811	          0.06894308	         -0.33072549	          0.38554904	          0.87596262	         -0.31978777	          0.38945386	          0.87380916	         -0.20159228	          0.38164422	          0.87811601	         -0.43798324	          0.19121477	          0.93114138	         -0.27508417	          0.18604264	          0.92916203	         -0.33069101	          0.48151761	          0.46087903	         -0.17057079	          0.26199880	          0.42277333	         -0.42307597	          0.47203070	          0.45254686	         -0.28592721	          0.26663923	          0.44299105	         -0.30200082	          0.48353255	          0.08385448	         -0.18587866	          0.17199835	          0.06773078	         -0.36850709	          0.50639725	          0.09258406	         -0.25717580	          0.19641538	          0.07705995	         -0.30639508	          0.26639062	          1.37630439	         -0.31366777	          0.38848633	          1.30998909	         -0.26130861	          0.38941756	          1.30584872	         -0.36781672	          0.38518244	          1.30464208	         -0.31412733	          0.42236248	          1.23380256	         -0.31468198	          0.55351621	          0.64692819	         -0.25532985	          0.31593150	          0.54753184	         -0.51538312	          0.47724584	          0.66433609	         -0.19316123	          0.25822079	          0.60468405	         -0.46460092	          0.50581825	          0.58007228	         -0.19364482	          0.25890386	          0.51908135	         -0.44489110	          0.47265083	          0.16499239	         -0.11619973	          0.29975909	          0.17706184	         -0.33394176	          0.47383276	          0.17179054	         -0.15907800	          0.25837764	          0.18297447	         -0.34301808	          0.59345025	          0.06599938	         -0.19659421	          0.28948227	          0.04267259	         -0.36384413	
          0.65000004	          0.38999093	          0.87518507	         -0.31947157	         -3.50739098	          0.53072858	          2.15738630	         30.29549408	         -3.77523637	          5.45897007	        -21.46500015	          0.28458208	          0.00000000	          0.00000000	         -2.74686337	          5.15985537	         10.91382980	         -4.81630182	          9.88411140	          0.00000000	          0.00000000	         -6.16241503	         -2.56030846	         -2.63199925	          0.00000000	          0.00000000	          0.00000000	          0.60681934	          0.00000000	         -0.23052052	          7.99944501	        604.64824172	         23.44124962	          0.29263434	          0.00000000	         -0.35385153	          0.00000000	          0.00000000	          0.00000000	          0.00000000	         -2.06029517	          0.00000000	          0.31926885	          0.82238001	         -0.31756657	          0.30577511	          0.79853213	         -0.24199936	          0.29564363	          0.80119944	         -0.39376578	          0.47984454	          0.45482457	         -0.22901623	          0.25588843	          0.42768860	         -0.36561558	          0.51344132	          0.08330861	         -0.22288071	          0.18513347	          0.06905604	         -0.33052555	          0.38999093	          0.87518507	         -0.31947157	          0.39398846	          0.87293977	         -0.20128731	          0.38599336	          0.87743038	         -0.43765581	          0.19601300	          0.93051946	         -0.27428699	          0.19068514	          0.92863923	         -0.32998598	          0.48500305	          0.45961174	         -0.17144477	          0.26432243	          0.42248395	         -0.42276257	          0.47271073	          0.45027474	         -0.28620753	          0.27074155	          0.44341108	         -0.30121475	          0.50021732	          0.08273612	         -0.18513422	          0.17202513	          0.06794615	         -0.36830038	          0.52349126	          0.09215564	         -0.25618052	          0.19663985	          0.07709388	         -0.30625901	          0.27193299	          1.37553716	         -0.31273088	          0.39334273	          1.30910349	         -0.26128247	          0.39380994	          1.30564463	         -0.36779198	          0.39009833	          1.30390930	         -0.31378910	          0.42684740	          1.23319864	         -0.31527424	          0.55684775	          0.64442641	         -0.25631192	          0.31883204	          0.54710364	         -0.51501942	          0.48103648	          0.66217238	         -0.19422895	          0.26098537	          0.60451072	         -0.46430653	          0.50824344	          0.57775909	         -0.19435245	          0.26212725	          0.51901287	         -0.44432744	          0.48633379	          0.16383579	         -0.11562973	          0.30052000	          0.17645720	         -0.33375922	          0.48760611	          0.17046025	         -0.15849783	          0.25920573	          0.18247446	         -0.34284106	          0.61083972	          0.06834327	         -0.19647206	          0.28951535	          0.04266500	         -0.36369747	
          0.65833336	          0.39452320	          0.87437248	         -0.31912422	         -3.58121395	          0.55964047	          2.24722242	         30.12925720	         -3.68030691	          5.69586802	        -19.26493645	          0.00308174	          0.00000000	          0.00000000	         -2.97448444	          5.18654680	         10.93458652	         -4.90185738	         10.17731857	          0.00000000	          0.00000000	         -6.22587252	         -2.46381092	         -2.73204875	          0.00000000	          0.00000000	          0.00000000	          0.60788281	          0.00000000	         -0.22985320	          8.94244697	        606.10994065	         24.17502452	          0.29473288	          0.00000000	         -0.35418488	          0.00000000	          0.00000000	          0.00000000	          0.00000000	         -2.07731836	          0.00000000	          0.32271022	          0.82029474	         -0.31715837	          0.31031641	          0.79775661	         -0.24160567	          0.29997969	          0.80057454	         -0.39335549	          0.48283476	          0.45354986	         -0.22979528	          0.25833210	          0.42741841	         -0.36526993	          0.52941585	          0.08289742	         -0.22211577	          0.18521434	          0.06916130	         -0.33033547	          0.39452320	          0.87437248	         -0.31912422	          0.39868096	          0.87201458	         -0.20093092	          0.39036545	          0.87673044	         -0.43731749	          0.20086287	          0.92984444	         -0.27343059	          0.19537452	          0.92807519	         -0.32923695	          0.48835155	          0.45828930	         -0.17225310	          0.26667354	          0.42218542	         -0.42242792	          0.47393242	          0.44848788	         -0.28725722	          0.27456209	          0.44260669	         -0.30137756	          0.51618981	          0.08201720	         -0.18437590	          0.17207460	          0.06816028	         -0.36810249	          0.53964913	          0.09185774	         -0.25535023	          0.19665404	          0.07717178	         -0.30599031	          0.27723771	          1.37489700	         -0.31234935	          0.39815465	          1.30811214	         -0.26104331	          0.39867699	          1.30489492	         -0.36745346	          0.39499211	          1.30313694	         -0.31345156	          0.43145683	          1.23222697	         -0.31513199	          0.56006926	          0.64175606	         -0.25730836	          0.32171166	          0.54668820	         -0.51464361	          0.48467362	          0.66000170	         -0.19484840	          0.26414660	          0.60439092	         -0.46370324	          0.51101953	          0.57551181	         -0.19526671	          0.26535696	          0.51888037	         -0.44412512	          0.49939215	          0.16299045	         -0.11506651	          0.30130821	          0.17590429	         -0.33359304	          0.50072515	          0.16902417	         -0.15816289	          0.25986865	          0.18217014	         -0.34254709	          0.62739706	          0.07095059	         -0.19621763	          0.28956136	          0.04265761	         -0.36358479	
